<svg xmlns="http://www.w3.org/2000/svg" viewBox="0 0 1146 272"><defs><style>.cls-1{fill:#231f20;}.cls-2{fill:#010101;}</style></defs><g id="Layer_2" data-name="Layer 2"><path class="cls-1" d="M573.33 186s-16 77.33 0 77.33 0-77.33 0-77.33zM573.33 116.67s-6.67 56 0 56 0-56 0-56z"/><circle class="cls-1" cx="553.67" cy="232.33" r="7.67"/><circle class="cls-1" cx="593.67" cy="233.33" r="7.67"/><path class="cls-1" d="M583.24 128.5c-.68 10 6.75 33.17 22 57.5 8.64 13.78 27 17.75 34.25 17.25s9.5-.44 11.5 0 6 2 7 0 2-7.28 0-9-8-.21-10.5 0c-14.5 1.25-26.29 2.49-39.77-15.81-19.82-26.92-24.48-49.94-24.48-49.94zM562.75 128.5c.68 10-6.75 33.17-22 57.5-8.64 13.78-27 17.75-34.25 17.25s-9.5-.44-11.5 0-6 2-7 0-2-7.28 0-9 8-.21 10.5 0c14.5 1.25 26.29 2.49 39.77-15.81 19.81-26.92 24.48-49.94 24.48-49.94zM583.19 186s38.67 57.33 50.33 43.67-14.27-17.35-19.67-20.78c-8.92-5.68-30.66-22.89-30.66-22.89zM561.33 188.67S522.67 246 511 232.33s14.27-17.35 19.67-20.78c8.93-5.67 30.66-22.88 30.66-22.88z"/><path class="cls-1" d="M548 132.5s-13.86 42.34-43.49 43.73c-30.68 1.44-47.34-4.73-55.18-24.89-5.5-14.17 8.17-33.17 18.5-33.83s23.29 12.83 21.5 19.33c-1.33 4.83-4.91 6.13-8.17 4.67-3.63-1.63-2.67-5.33-2.33-7.17s-.67-9.67-11.17-9-14.17 16-10.67 25c6.51 16.75 26.31 22.06 51.83 20C531.5 168.5 548 132.5 548 132.5zM595.74 132.5s13.86 42.34 43.49 43.73c30.68 1.44 47.34-4.73 55.18-24.89 5.5-14.17-8.17-33.17-18.5-33.83s-23.29 12.83-21.5 19.33c1.33 4.83 4.91 6.13 8.17 4.67 3.63-1.63 2.67-5.33 2.33-7.17s.67-9.67 11.17-9 14.17 16 10.67 25c-6.51 16.75-26.31 22.06-51.83 20-22.68-1.84-39.18-37.84-39.18-37.84z"/><g id="Layer_3" data-name="Layer 3"><path class="cls-1" d="M478.75 43.25s-31.37-13.34-69.5 6.5c-37 19.25-97.75 70.5-130.5 57.75s-47.25-43-41.5-63.5 38.42-18.31 42.25-13.5c13.67 17.17 11.78 30.79 10.33 34.33s-6.34 5.64-9.59 6.07c-4.09.54-10.75-2.57-10.75-2.57l-1.67-9.17s9 .83 10.54-2.64c1.15-2.59 3-13.61-6.21-11.86s-10.92 17.75-9.67 23.5 12.75 12.08 20 10.83c3.73-.64 17-14.25 17.25-19.25.12-2.3-6.75-31.75-23.25-43.5C266.2 8.92 223.67-1.9 210 37.75c-10 29 25 65.75 35 73s51.92 9.4 70.5 1.5C346.67 99 394.78 58 437 45.25c11.63-3.52 41.75-2 41.75-2z"/><path class="cls-1" d="M526 76s-13.51-44.78-82.25-45.75c-62.12-.87-53.12 34.5-98 34-31.75-.35-27.5-24.25-22-31.5s11.75-7.25 16.5-4c3.36 2.3 8.75 8.25 5 13.75s-11 6.5-12.5 2.25.44-8 2.75-7c4.94 2.13-.31 3.94-.31 3.94l2.13 2.94 3.68-3.88s-1.5-8-4.5-8.75-11 3.55-10.25 13.25 11.29 15 16.75 15.25c44.46 2 37-35.7 103.5-33.73S526 76 526 76zM125.67 71.25S100.83 82.08 98 82.08s-18.83-.25-22.17 1.33-19.25 6.43-25 6.42c-3.1 0-21.21-8.83-23.46-11.71S5.86 51.45 11.88 35.25C15 26.83 18.5 21.83 22 20.88c2.81-.77 18.92-1.37 22.63 0 5.12 1.9 16.63 20.5 15.88 26.38s-22 4.5-24.37 1c-3.33-4.84 1.54-6.46 2.79-7.46s6.67 1.08 6.67 1.08-5.67 2.63-5.67 3.5 1.08 1.94 4.17 1.83c3.32-.11 8.08-.35 9.79-.62 4-.62-4.87-17.79-9.62-20.87-2.27-1.41-18.89-2.84-21.14-1.09s-8.87 14.5-8.37 17.88 1 16.17 15 33.13c4.81 5.83 20 11.38 22.88 11.5s17.63-5.5 22.25-6.5S94.38 79.88 97 79s25.38-9.5 25.38-9.5z"/><path class="cls-1" d="M127.17 51.75s4.49 1.23 5.75.52c.85-.48 1-2.09.67-3.86-.42-2.17-.72-2.79-1.58-2.92-2.81-.41-17.92 7.42-18 10s4.41 10.52 5.58 11.42c1.88 1.44 13.92 4.83 15.67 4.67s31.41-21.81 34.83-24.17c5.85-4 48.75-25.17 50.08-25.08a3.41 3.41 0 0 1 2.08.83S176 46.33 171.58 49.83s-33.42 24.42-35.75 24.42S120 70.58 118 68.58s-7.25-10.92-6.92-13.92 16.5-12.5 21.42-11.92 4.69 6.51 4.25 8.83c-.37 2-.83 4.33-4.67 3.92-2.6-.28-5.67-.67-5.67-.67M364.75 122.75c-1.78-5.61-.93-9.56 0-11.5 1.54-3.21 9.12-9.06 14.5-3.75 3.08 3-.46 7.72-2.62 7.72-1.79 0-3.53-.69-3.5-2.39s2.13-2.83 2.13-2.83-11.54-4.17-7.25 10.75c.28 1 13.75 1.5 15.75.25s6.25-6.5 8-13-2.75 15-6.5 16-19.93.58-20.51-1.25z"/><path class="cls-1" d="M405.75 117.48c8 7.62 32.25-7.23 33.5-12.48s2.75-11.75 0-12.25-18.5 2.75-21.25-1.5-2-9.25.75-10.75 19.6-.75 22 3.25 6.7 13.75 6 19.5S440 121 438 123.5s-15.5 9.5-19.25 9.75-13.5.75-15.5 0-18.49-15.63-13-39.25C397.41 63.2 424 46.25 424 46.25S381 94 405.75 117.48zM668.42 46.11s31.37-13.34 69.5 6.5c37 19.25 97.75 70.5 130.5 57.75s47.25-43 41.5-63.5-38.42-18.31-42.25-13.5C854 50.52 855.89 64.15 857.33 67.69s6.34 5.64 9.59 6.07c4.09.54 10.75-2.57 10.75-2.57l1.66-9.19s-9 .83-10.54-2.64c-1.15-2.59-3-13.61 6.21-11.86s10.92 17.75 9.67 23.5-12.75 12.08-20 10.83c-3.73-.64-17-14.25-17.25-19.25-.12-2.3 6.75-31.75 23.25-43.5C881 11.77 923.5 1 937.17 40.61c10 29-25 65.75-35 73s-51.92 9.4-70.5 1.5c-31.17-13.25-79.28-54.23-121.5-67-11.63-3.52-41.75-2-41.75-2z"/><path class="cls-1" d="M621.17 78.86s13.51-44.78 82.25-45.75c62.13-.87 53.13 34.5 98 34 31.75-.35 27.5-24.25 22-31.5s-11.75-7.25-16.5-4c-3.36 2.3-8.75 8.25-5 13.75s11 6.5 12.5 2.25-.44-8-2.75-7c-4.94 2.13.31 3.94.31 3.94l-2.12 2.94-3.69-3.87s1.5-8 4.5-8.75 11 3.55 10.25 13.25-11.29 15-16.75 15.25c-44.46 2-37-35.7-103.5-33.73s-79.5 49.22-79.5 49.22zM1021.5 74.11s24.83 10.83 27.67 10.83 18.83-.25 22.17 1.33 19.25 6.43 25 6.42c3.1 0 21.21-8.83 23.46-11.71s21.52-26.67 15.5-42.87c-3.12-8.42-6.62-13.42-10.12-14.37-2.81-.77-18.92-1.37-22.62 0-5.12 1.9-16.62 20.5-15.87 26.37s22 4.5 24.38 1c3.33-4.84-1.54-6.46-2.79-7.46s-6.67 1.08-6.67 1.08 5.67 2.63 5.67 3.5-1.08 1.94-4.17 1.83c-3.32-.11-8.08-.35-9.79-.62-4-.62 4.88-17.79 9.63-20.87 2.22-1.44 18.88-2.87 21.13-1.12s8.88 14.5 8.38 17.87-1 16.17-15 33.13c-4.81 5.83-20 11.38-22.87 11.5s-17.62-5.5-22.25-6.5-19.5-.75-22.12-1.62-25.37-9.5-25.37-9.5z"/><path class="cls-1" d="M1020 54.61s-4.49 1.23-5.75.52c-.85-.48-1-2.09-.67-3.86.42-2.17.72-2.79 1.58-2.92 2.81-.41 17.92 7.42 18 10s-4.41 10.52-5.58 11.42c-1.88 1.44-13.92 4.83-15.67 4.67s-31.41-21.81-34.83-24.17c-5.85-4-48.75-25.17-50.08-25.08a3.41 3.41 0 0 0-2.08.83s46.25 23.17 50.67 26.67 33.42 24.42 35.75 24.42 15.83-3.67 17.83-5.67 7.25-10.92 6.92-13.92-16.5-12.5-21.42-11.92-4.69 6.51-4.25 8.83c.37 2 .83 4.33 4.67 3.92 2.6-.28 5.67-.67 5.67-.67M782.42 125.61c1.78-5.61.93-9.56 0-11.5-1.54-3.21-9.12-9.06-14.5-3.75-3.08 3 .46 7.72 2.63 7.72 1.79 0 3.53-.69 3.5-2.39s-2.12-2.83-2.12-2.83 11.54-4.17 7.25 10.75c-.28 1-13.75 1.5-15.75.25s-6.25-6.5-8-13 2.75 15 6.5 16 19.9.58 20.49-1.25z"/><path class="cls-1" d="M741.42 120.33c-8 7.62-32.25-7.23-33.5-12.48s-2.75-11.75 0-12.25 18.5 2.75 21.25-1.5 2-9.25-.75-10.75-19.6-.75-22 3.25-6.7 13.75-6 19.5 6.75 17.75 8.75 20.25 15.5 9.5 19.25 9.75 13.5.75 15.5 0 18.49-15.63 13-39.25c-7.16-30.8-33.75-47.75-33.75-47.75s43 47.76 18.25 71.23z"/></g></g><g id="Layer_4" data-name="Layer 4"><path class="cls-1" d="M616.66 54.54c-2.22-6.39-11-10.15-22.47-10.36-2-13.33-6.5-22.92-12.21-24.51a6.59 6.59 0 0 0-4 .17l1.52 4.39a3.46 3.46 0 0 1 2-.14c2.75.76 5.75 6.27 7.61 14 .46 1.91.85 4 1.18 6.07a71 71 0 0 0-11.12 1.46 99.76 99.76 0 0 0-10.21-7.48c3.25-7.81 7.12-12.81 10.52-14l-1.52-4.39c-4.49 1.56-9 7.46-12.66 16.21-8.26-4.59-15.46-6.36-20-4.8l1.52 4.39c3.38-1.17 9.52.33 16.91 4.4a96.72 96.72 0 0 0-3.34 12.16 68.4 68.4 0 0 0-9.64 5.77c-1.06-1.84-2-3.65-2.83-5.41-3.38-7.25-4.46-13.42-2.79-15.74a3.33 3.33 0 0 1 1.7-1.16l-1.52-4.39a6.7 6.7 0 0 0-3.31 2.44c-3.48 4.78-1.06 15.08 5.64 26.73-8.85 7.31-13.37 15.64-11.15 22s11 10.15 22.47 10.36c2 13.33 6.5 22.92 12.21 24.51a6.61 6.61 0 0 0 4.06-.17c4.49-1.56 9-7.46 12.66-16.21 8.26 4.59 15.46 6.36 20 4.8a6.7 6.7 0 0 0 3.31-2.38c3.48-4.78 1.06-15.08-5.64-26.73 8.82-7.28 13.33-15.63 11.12-22zm-25.83-5.74c.28 2.75.43 5.63.49 8.54-1.22-1.34-2.47-2.67-3.78-4s-2.63-2.57-4-3.79a66.37 66.37 0 0 1 7.24-.77zm-.2 23.55c-.35 3.1-.78 6.07-1.33 8.88a74.81 74.81 0 0 1-7.25 3c-2.47.86-5 1.58-7.48 2.18-2.17-1.87-4.36-3.91-6.55-6.1s-4.17-4.37-6.12-6.65c.1-3 .32-6 .65-9s.78-6.07 1.33-8.88a74.81 74.81 0 0 1 7.25-3c2.47-.86 5-1.58 7.48-2.18 2.17 1.87 4.36 3.91 6.55 6.1s4.17 4.37 6.12 6.65c-.11 3-.32 6-.65 9zM595 68c1.8 2.33 3.46 4.71 5 7a66 66 0 0 1-6.18 3.91c.27-1.79.53-3.63.73-5.48s.35-3.67.48-5.48zm-9.27 26.75c-2.18-1.36-4.43-2.94-6.73-4.72 1.5-.43 3-.89 4.54-1.42s3-1.1 4.49-1.71a79.16 79.16 0 0 1-2.29 7.81zm-16.18-7.37a66.37 66.37 0 0 1-7.24.77c-.28-2.75-.43-5.63-.49-8.54 1.22 1.34 2.47 2.67 3.78 4s2.64 2.51 3.96 3.73zm-2.13-45.18c2.18 1.36 4.43 2.94 6.73 4.72-1.5.43-3 .89-4.54 1.42s-3 1.1-4.49 1.71a79.16 79.16 0 0 1 2.3-7.85zM559.35 58c-.27 1.79-.53 3.63-.73 5.48s-.36 3.65-.48 5.46c-1.8-2.33-3.46-4.71-5-7a71.41 71.41 0 0 1 6.21-3.94zm-6.23 29.77c-6.81-1-11.91-3.56-13-6.65s1.31-8.3 6.07-13.26a47.81 47.81 0 0 1 3.81-3.57A113.8 113.8 0 0 0 557.88 75a112.3 112.3 0 0 0 .51 13.18 47.13 47.13 0 0 1-5.27-.42zm18.55 25.07c-2.75-.76-5.75-6.27-7.61-14-.46-1.91-.85-4-1.18-6.07A71 71 0 0 0 574 91.24a99.76 99.76 0 0 0 10.21 7.48c-3.25 7.81-7.12 12.81-10.52 14a3.58 3.58 0 0 1-2 .11zm33.54-28.45c3.38 7.25 4.46 13.42 2.79 15.74a3.33 3.33 0 0 1-1.7 1.16c-3.38 1.17-9.52-.33-16.91-4.4a96.72 96.72 0 0 0 3.34-12.16 68.4 68.4 0 0 0 9.64-5.77c1.07 1.84 2.03 3.65 2.85 5.42zm1.73-15.31a47.8 47.8 0 0 1-3.83 3.56 113.8 113.8 0 0 0-7.84-10.71 112.3 112.3 0 0 0-.51-13.18 49.18 49.18 0 0 1 5.29.41c6.81 1 11.91 3.56 13 6.65s-1.32 8.31-6.08 13.27z"/><ellipse class="cls-2" cx="576.57" cy="68.46" rx="7.9" ry="9.52" transform="rotate(-19.15 576.607 68.46)"/></g></svg>